<?xml version="1.0" encoding="UTF-8" standalone="no"?>
<!DOCTYPE svg PUBLIC "-//W3C//DTD SVG 1.1//EN"
 "http://www.w3.org/Graphics/SVG/1.1/DTD/svg11.dtd">
<!-- Generated by graphviz version 2.43.0 (0)
 -->
<!-- Title: Blink Pages: 1 -->
<svg width="1303pt" height="571pt"
 viewBox="0.00 0.00 1302.58 571.43" xmlns="http://www.w3.org/2000/svg" xmlns:xlink="http://www.w3.org/1999/xlink">
<g id="graph0" class="graph" transform="scale(1 1) rotate(0) translate(4 567.43)">
<title>Blink</title>
<polygon fill="white" stroke="transparent" points="-4,4 -4,-567.43 1298.58,-567.43 1298.58,4 -4,4"/>
<!-- node298 -->
<g id="node1" class="node">
<title>node298</title>
<polygon fill="none" stroke="black" points="960.2,-527.48 962.13,-527.58 964.03,-527.73 965.91,-527.93 967.75,-528.17 969.55,-528.46 971.3,-528.8 973,-529.18 974.63,-529.61 976.19,-530.08 977.68,-530.59 979.08,-531.15 980.41,-531.74 981.64,-532.37 982.78,-533.04 983.83,-533.74 984.77,-534.47 985.62,-535.24 986.37,-536.03 987.01,-536.84 987.55,-537.68 987.99,-538.54 988.32,-539.42 988.56,-540.32 988.69,-541.23 988.73,-542.15 988.67,-543.08 988.51,-544.02 988.27,-544.96 987.94,-545.91 987.53,-546.85 987.04,-547.78 986.48,-548.72 985.84,-549.64 985.14,-550.55 984.38,-551.44 983.56,-552.32 982.68,-553.19 981.76,-554.03 980.78,-554.84 979.77,-555.63 978.72,-556.4 977.64,-557.13 976.52,-557.83 975.38,-558.5 974.22,-559.13 973.03,-559.72 971.83,-560.27 970.61,-560.79 969.37,-561.26 968.13,-561.69 966.87,-562.07 965.61,-562.41 964.34,-562.7 963.07,-562.94 961.79,-563.14 960.5,-563.29 959.22,-563.38 957.93,-563.43 956.65,-563.43 955.36,-563.38 954.08,-563.29 952.8,-563.14 951.52,-562.94 950.24,-562.7 948.97,-562.41 947.71,-562.07 946.45,-561.69 945.21,-561.26 943.98,-560.79 942.76,-560.27 941.55,-559.72 940.36,-559.13 939.2,-558.5 938.06,-557.83 936.94,-557.13 935.86,-556.4 934.81,-555.63 933.8,-554.84 932.83,-554.03 931.9,-553.19 931.03,-552.32 930.2,-551.44 929.44,-550.55 928.74,-549.64 928.1,-548.72 927.54,-547.78 927.05,-546.85 926.64,-545.91 926.31,-544.96 926.07,-544.02 925.92,-543.08 925.86,-542.15 925.89,-541.23 926.03,-540.32 926.26,-539.42 926.6,-538.54 927.03,-537.68 927.57,-536.84 928.22,-536.03 928.96,-535.24 929.81,-534.47 930.76,-533.74 931.8,-533.04 932.94,-532.37 934.18,-531.74 935.5,-531.15 936.91,-530.59 938.39,-530.08 939.95,-529.61 941.59,-529.18 943.28,-528.8 945.03,-528.46 946.83,-528.17 948.67,-527.93 950.55,-527.73 952.46,-527.58 954.38,-527.48 956.32,-527.43 958.26,-527.43 960.2,-527.48"/>
<text text-anchor="middle" x="957.29" y="-542.33" font-family="Times,serif" font-size="12.00">Blink</text>
</g>
<!-- node299 -->
<g id="node2" class="node">
<title>node299</title>
<polygon fill="none" stroke="black" points="1038.63,-479 957.29,-491.43 875.96,-479 907.02,-458.87 1007.56,-458.87 1038.63,-479"/>
<text text-anchor="middle" x="957.29" y="-470.33" font-family="Times,serif" font-size="12.00">stm32_runtime</text>
</g>
<!-- node298&#45;&gt;node299 -->
<g id="edge1" class="edge">
<title>node298&#45;&gt;node299</title>
<path fill="none" stroke="black" stroke-dasharray="1,5" d="M957.29,-527.13C957.29,-519.42 957.29,-510.15 957.29,-501.55"/>
<polygon fill="black" stroke="black" points="960.79,-501.54 957.29,-491.54 953.79,-501.54 960.79,-501.54"/>
</g>
<!-- node300 -->
<g id="node3" class="node">
<title>node300</title>
<polygon fill="none" stroke="black" points="893.78,-407 824.29,-419.43 754.81,-407 781.35,-386.87 867.24,-386.87 893.78,-407"/>
<text text-anchor="middle" x="824.29" y="-398.33" font-family="Times,serif" font-size="12.00">SrcWrapper</text>
</g>
<!-- node299&#45;&gt;node300 -->
<g id="edge2" class="edge">
<title>node299&#45;&gt;node300</title>
<path fill="none" stroke="black" stroke-dasharray="5,2" d="M931.33,-458.77C910.2,-447.65 880.25,-431.88 857.39,-419.86"/>
<polygon fill="black" stroke="black" points="858.87,-416.68 848.39,-415.12 855.61,-422.87 858.87,-416.68"/>
</g>
<!-- node303 -->
<g id="node6" class="node">
<title>node303</title>
<polygon fill="none" stroke="black" points="1034.21,-191 967.29,-203.43 900.37,-191 925.93,-170.87 1008.65,-170.87 1034.21,-191"/>
<text text-anchor="middle" x="967.29" y="-182.33" font-family="Times,serif" font-size="12.00">base_config</text>
</g>
<!-- node299&#45;&gt;node303 -->
<g id="edge17" class="edge">
<title>node299&#45;&gt;node303</title>
<path fill="none" stroke="black" stroke-dasharray="5,2" d="M953.44,-458.8C943.79,-422.53 920.74,-320.87 940.29,-239.43 942.66,-229.55 947.2,-219.44 951.89,-210.73"/>
<polygon fill="black" stroke="black" points="955.01,-212.32 956.94,-201.9 948.93,-208.84 955.01,-212.32"/>
</g>
<!-- node313 -->
<g id="node17" class="node">
<title>node313</title>
<polygon fill="none" stroke="black" points="1027.75,-407 994.29,-419.43 960.83,-407 973.61,-386.87 1014.97,-386.87 1027.75,-407"/>
<text text-anchor="middle" x="994.29" y="-398.33" font-family="Times,serif" font-size="12.00">core</text>
</g>
<!-- node299&#45;&gt;node313 -->
<g id="edge18" class="edge">
<title>node299&#45;&gt;node313</title>
<path fill="none" stroke="black" stroke-dasharray="5,2" d="M964.6,-458.6C969.55,-449.24 976.22,-436.63 981.98,-425.73"/>
<polygon fill="black" stroke="black" points="985.16,-427.19 986.74,-416.72 978.98,-423.92 985.16,-427.19"/>
</g>
<!-- node316 -->
<g id="node20" class="node">
<title>node316</title>
<polygon fill="none" stroke="black" points="1198.1,-407 1152.29,-419.43 1106.48,-407 1123.98,-386.87 1180.6,-386.87 1198.1,-407"/>
<text text-anchor="middle" x="1152.29" y="-398.33" font-family="Times,serif" font-size="12.00">variant</text>
</g>
<!-- node299&#45;&gt;node316 -->
<g id="edge23" class="edge">
<title>node299&#45;&gt;node316</title>
<path fill="none" stroke="black" stroke-dasharray="5,2" d="M995.35,-458.77C1030.16,-446.28 1081.3,-427.92 1115.65,-415.59"/>
<polygon fill="black" stroke="black" points="1117.07,-418.8 1125.3,-412.12 1114.7,-412.21 1117.07,-418.8"/>
</g>
<!-- node301 -->
<g id="node4" class="node">
<title>node301</title>
<polygon fill="none" stroke="black" points="826.7,-329.43 785.5,-347.43 703.09,-347.43 661.88,-329.43 703.09,-311.43 785.5,-311.43 826.7,-329.43"/>
<text text-anchor="middle" x="744.29" y="-326.33" font-family="Times,serif" font-size="12.00">SrcWrapper_bin</text>
</g>
<!-- node300&#45;&gt;node301 -->
<g id="edge3" class="edge">
<title>node300&#45;&gt;node301</title>
<path fill="none" stroke="black" stroke-dasharray="5,2" d="M808.49,-386.6C797.95,-377.39 783.83,-365.03 771.52,-354.26"/>
<polygon fill="black" stroke="black" points="773.57,-351.4 763.74,-347.45 768.96,-356.67 773.57,-351.4"/>
</g>
<!-- node302 -->
<g id="node5" class="node">
<title>node302</title>
<polygon fill="none" stroke="black" points="893.67,-263 793.29,-275.43 692.91,-263 731.25,-242.87 855.33,-242.87 893.67,-263"/>
<text text-anchor="middle" x="793.29" y="-254.33" font-family="Times,serif" font-size="12.00">SrcWrapper_usage</text>
</g>
<!-- node300&#45;&gt;node302 -->
<g id="edge16" class="edge">
<title>node300&#45;&gt;node302</title>
<path fill="none" stroke="black" stroke-dasharray="5,2" d="M829.7,-386.76C835.92,-368.94 844.2,-337.02 835.29,-311.43 831.45,-300.4 824.25,-289.93 816.88,-281.26"/>
<polygon fill="black" stroke="black" points="819.46,-278.9 810.15,-273.84 814.27,-283.6 819.46,-278.9"/>
</g>
<!-- node301&#45;&gt;node302 -->
<g id="edge4" class="edge">
<title>node301&#45;&gt;node302</title>
<path fill="none" stroke="black" d="M756.4,-311.13C762.48,-302.45 769.93,-291.8 776.55,-282.35"/>
<polygon fill="black" stroke="black" points="779.45,-284.3 782.32,-274.11 773.72,-280.29 779.45,-284.3"/>
</g>
<!-- node302&#45;&gt;node303 -->
<g id="edge5" class="edge">
<title>node302&#45;&gt;node303</title>
<path fill="none" stroke="black" stroke-dasharray="5,2" d="M827.25,-242.77C856.44,-231.03 898.49,-214.11 928.89,-201.88"/>
<polygon fill="black" stroke="black" points="930.35,-205.07 938.32,-198.09 927.74,-198.57 930.35,-205.07"/>
</g>
<!-- node304 -->
<g id="node7" class="node">
<title>node304</title>
<polygon fill="none" stroke="black" points="814.52,-110.97 690.29,-131.65 566.07,-110.97 613.52,-77.5 767.07,-77.5 814.52,-110.97"/>
<text text-anchor="middle" x="690.29" y="-105.12" font-family="Times,serif" font-size="12.00">NUCLEO_L433RC_P</text>
<text text-anchor="middle" x="690.29" y="-92.12" font-family="Times,serif" font-size="12.00">(board)</text>
</g>
<!-- node303&#45;&gt;node304 -->
<g id="edge6" class="edge">
<title>node303&#45;&gt;node304</title>
<path fill="none" stroke="black" d="M924.62,-171.84C881.56,-159.14 814.27,-139.29 762.82,-124.11"/>
<polygon fill="black" stroke="black" points="763.67,-120.71 753.08,-121.24 761.69,-127.43 763.67,-120.71"/>
</g>
<!-- node308 -->
<g id="node12" class="node">
<title>node308</title>
<polygon fill="none" stroke="black" points="886.29,-97.71 880.94,-112.94 859.29,-119.72 837.64,-112.94 832.29,-97.71 847.28,-85.5 871.31,-85.5 886.29,-97.71"/>
<text text-anchor="middle" x="859.29" y="-98.62" font-family="Times,serif" font-size="12.00">c</text>
</g>
<!-- node303&#45;&gt;node308 -->
<g id="edge11" class="edge">
<title>node303&#45;&gt;node308</title>
<path fill="none" stroke="black" stroke-dasharray="5,2" d="M948.19,-170.68C933.59,-160.1 913.03,-145.03 895.29,-131.43 891.12,-128.23 886.71,-124.78 882.46,-121.42"/>
<polygon fill="black" stroke="black" points="884.6,-118.65 874.6,-115.15 880.24,-124.12 884.6,-118.65"/>
</g>
<!-- node309 -->
<g id="node13" class="node">
<title>node309</title>
<polygon fill="none" stroke="black" points="958.29,-97.71 952.94,-112.94 931.29,-119.72 909.64,-112.94 904.29,-97.71 919.28,-85.5 943.31,-85.5 958.29,-97.71"/>
<text text-anchor="middle" x="931.29" y="-98.62" font-family="Times,serif" font-size="12.00">gcc</text>
</g>
<!-- node303&#45;&gt;node309 -->
<g id="edge12" class="edge">
<title>node303&#45;&gt;node309</title>
<path fill="none" stroke="black" stroke-dasharray="5,2" d="M961.18,-170.57C955.94,-158.66 948.25,-141.2 941.98,-126.98"/>
<polygon fill="black" stroke="black" points="945.15,-125.5 937.92,-117.76 938.75,-128.32 945.15,-125.5"/>
</g>
<!-- node310 -->
<g id="node14" class="node">
<title>node310</title>
<polygon fill="none" stroke="black" points="1030.29,-97.71 1024.94,-112.94 1003.29,-119.72 981.64,-112.94 976.29,-97.71 991.28,-85.5 1015.31,-85.5 1030.29,-97.71"/>
<text text-anchor="middle" x="1003.29" y="-98.62" font-family="Times,serif" font-size="12.00">m</text>
</g>
<!-- node303&#45;&gt;node310 -->
<g id="edge13" class="edge">
<title>node303&#45;&gt;node310</title>
<path fill="none" stroke="black" stroke-dasharray="5,2" d="M973.4,-170.57C978.65,-158.66 986.34,-141.2 992.6,-126.98"/>
<polygon fill="black" stroke="black" points="995.84,-128.32 996.67,-117.76 989.43,-125.5 995.84,-128.32"/>
</g>
<!-- node311 -->
<g id="node15" class="node">
<title>node311</title>
<polygon fill="none" stroke="black" points="1132.15,-97.71 1123.86,-112.94 1090.29,-119.72 1056.72,-112.94 1048.43,-97.71 1071.66,-85.5 1108.92,-85.5 1132.15,-97.71"/>
<text text-anchor="middle" x="1090.29" y="-98.62" font-family="Times,serif" font-size="12.00">stdc++</text>
</g>
<!-- node303&#45;&gt;node311 -->
<g id="edge14" class="edge">
<title>node303&#45;&gt;node311</title>
<path fill="none" stroke="black" stroke-dasharray="5,2" d="M987.88,-170.76C1008.16,-157.28 1039.32,-136.58 1061.94,-121.55"/>
<polygon fill="black" stroke="black" points="1064.06,-124.35 1070.45,-115.9 1060.19,-118.52 1064.06,-124.35"/>
</g>
<!-- node312 -->
<g id="node16" class="node">
<title>node312</title>
<polygon fill="none" stroke="black" points="1294.36,-107.28 1222.29,-119.72 1150.22,-107.28 1177.75,-87.15 1266.84,-87.15 1294.36,-107.28"/>
<text text-anchor="middle" x="1222.29" y="-98.62" font-family="Times,serif" font-size="12.00">user_settings</text>
</g>
<!-- node303&#45;&gt;node312 -->
<g id="edge15" class="edge">
<title>node303&#45;&gt;node312</title>
<path fill="none" stroke="black" stroke-dasharray="5,2" d="M1010.37,-171.9C1045.68,-161.48 1096.9,-146.06 1141.29,-131.43 1154.28,-127.16 1168.35,-122.26 1181.06,-117.74"/>
<polygon fill="black" stroke="black" points="1182.24,-121.03 1190.47,-114.37 1179.88,-114.44 1182.24,-121.03"/>
</g>
<!-- node305 -->
<g id="node8" class="node">
<title>node305</title>
<polygon fill="none" stroke="black" points="354.37,-23.56 177.29,-36 0.21,-23.56 67.85,-3.44 286.73,-3.44 354.37,-23.56"/>
<text text-anchor="middle" x="177.29" y="-14.9" font-family="Times,serif" font-size="12.00">NUCLEO_L433RC_P_serial_generic</text>
</g>
<!-- node304&#45;&gt;node305 -->
<g id="edge7" class="edge">
<title>node304&#45;&gt;node305</title>
<path fill="none" stroke="black" stroke-dasharray="5,2" d="M600.64,-86.44C505.04,-71.21 354.8,-47.28 261.38,-32.4"/>
<polygon fill="black" stroke="black" points="261.83,-28.92 251.4,-30.81 260.73,-35.83 261.83,-28.92"/>
</g>
<!-- node306 -->
<g id="node9" class="node">
<title>node306</title>
<polygon fill="none" stroke="black" points="683.74,-23.56 528.29,-36 372.84,-23.56 432.22,-3.44 624.37,-3.44 683.74,-23.56"/>
<text text-anchor="middle" x="528.29" y="-14.9" font-family="Times,serif" font-size="12.00">NUCLEO_L433RC_P_usb_none</text>
</g>
<!-- node304&#45;&gt;node306 -->
<g id="edge8" class="edge">
<title>node304&#45;&gt;node306</title>
<path fill="none" stroke="black" stroke-dasharray="5,2" d="M643.87,-77.3C619.38,-64.95 589.7,-49.98 566.55,-38.3"/>
<polygon fill="black" stroke="black" points="567.89,-35.05 557.38,-33.67 564.74,-41.3 567.89,-35.05"/>
</g>
<!-- node307 -->
<g id="node10" class="node">
<title>node307</title>
<polygon fill="none" stroke="black" points="1003.11,-23.56 852.29,-36 701.47,-23.56 759.08,-3.44 945.5,-3.44 1003.11,-23.56"/>
<text text-anchor="middle" x="852.29" y="-14.9" font-family="Times,serif" font-size="12.00">NUCLEO_L433RC_P_xusb_FS</text>
</g>
<!-- node304&#45;&gt;node307 -->
<g id="edge9" class="edge">
<title>node304&#45;&gt;node307</title>
<path fill="none" stroke="black" stroke-dasharray="5,2" d="M736.71,-77.3C761.2,-64.95 790.88,-49.98 814.03,-38.3"/>
<polygon fill="black" stroke="black" points="815.85,-41.3 823.2,-33.67 812.69,-35.05 815.85,-41.3"/>
</g>
<!-- node37 -->
<g id="node11" class="node">
<title>node37</title>
<polygon fill="none" stroke="black" points="1225.77,-13.99 1205.47,-29.22 1123.29,-36 1041.11,-29.22 1020.82,-13.99 1077.69,-1.78 1168.9,-1.78 1225.77,-13.99"/>
<text text-anchor="middle" x="1123.29" y="-14.9" font-family="Times,serif" font-size="12.00">arm_cortexM4lf_math</text>
</g>
<!-- node304&#45;&gt;node37 -->
<g id="edge10" class="edge">
<title>node304&#45;&gt;node37</title>
<path fill="none" stroke="black" stroke-dasharray="5,2" d="M773.91,-82.16C790.26,-78.67 807.3,-75.14 823.29,-72 898.27,-57.29 984.15,-42.3 1044.76,-32.04"/>
<polygon fill="black" stroke="black" points="1045.37,-35.49 1054.64,-30.37 1044.2,-28.58 1045.37,-35.49"/>
</g>
<!-- node314 -->
<g id="node18" class="node">
<title>node314</title>
<polygon fill="none" stroke="black" points="1039.41,-321.98 1039.41,-336.89 1012.98,-347.43 975.6,-347.43 949.17,-336.89 949.17,-321.98 975.6,-311.43 1012.98,-311.43 1039.41,-321.98"/>
<text text-anchor="middle" x="994.29" y="-326.33" font-family="Times,serif" font-size="12.00">core_bin</text>
</g>
<!-- node313&#45;&gt;node314 -->
<g id="edge19" class="edge">
<title>node313&#45;&gt;node314</title>
<path fill="none" stroke="black" stroke-dasharray="5,2" d="M994.29,-386.6C994.29,-378.35 994.29,-367.59 994.29,-357.69"/>
<polygon fill="black" stroke="black" points="997.79,-357.45 994.29,-347.45 990.79,-357.45 997.79,-357.45"/>
</g>
<!-- node315 -->
<g id="node19" class="node">
<title>node315</title>
<polygon fill="none" stroke="black" points="1079.15,-263 1014.29,-275.43 949.44,-263 974.21,-242.87 1054.37,-242.87 1079.15,-263"/>
<text text-anchor="middle" x="1014.29" y="-254.33" font-family="Times,serif" font-size="12.00">core_usage</text>
</g>
<!-- node313&#45;&gt;node315 -->
<g id="edge22" class="edge">
<title>node313&#45;&gt;node315</title>
<path fill="none" stroke="black" stroke-dasharray="5,2" d="M1014.75,-386.85C1027,-377.43 1041.48,-363.66 1048.29,-347.43 1057.64,-325.15 1045.25,-299.32 1032.88,-281.24"/>
<polygon fill="black" stroke="black" points="1035.63,-279.06 1026.91,-273.04 1029.97,-283.18 1035.63,-279.06"/>
</g>
<!-- node314&#45;&gt;node315 -->
<g id="edge20" class="edge">
<title>node314&#45;&gt;node315</title>
<path fill="none" stroke="black" d="M999.24,-311.13C1001.55,-303.01 1004.37,-293.17 1006.93,-284.2"/>
<polygon fill="black" stroke="black" points="1010.3,-285.16 1009.68,-274.58 1003.57,-283.23 1010.3,-285.16"/>
</g>
<!-- node315&#45;&gt;node303 -->
<g id="edge21" class="edge">
<title>node315&#45;&gt;node303</title>
<path fill="none" stroke="black" stroke-dasharray="5,2" d="M1005.01,-242.6C998.82,-233.39 990.53,-221.04 983.29,-210.27"/>
<polygon fill="black" stroke="black" points="986.02,-208.04 977.54,-201.69 980.21,-211.95 986.02,-208.04"/>
</g>
<!-- node317 -->
<g id="node21" class="node">
<title>node317</title>
<polygon fill="none" stroke="black" points="1209.06,-321.98 1209.06,-336.89 1175.81,-347.43 1128.78,-347.43 1095.52,-336.89 1095.52,-321.98 1128.78,-311.43 1175.81,-311.43 1209.06,-321.98"/>
<text text-anchor="middle" x="1152.29" y="-326.33" font-family="Times,serif" font-size="12.00">variant_bin</text>
</g>
<!-- node316&#45;&gt;node317 -->
<g id="edge24" class="edge">
<title>node316&#45;&gt;node317</title>
<path fill="none" stroke="black" stroke-dasharray="5,2" d="M1152.29,-386.6C1152.29,-378.35 1152.29,-367.59 1152.29,-357.69"/>
<polygon fill="black" stroke="black" points="1155.79,-357.45 1152.29,-347.45 1148.79,-357.45 1155.79,-357.45"/>
</g>
<!-- node318 -->
<g id="node22" class="node">
<title>node318</title>
<polygon fill="none" stroke="black" points="1251,-263 1174.29,-275.43 1097.59,-263 1126.89,-242.87 1221.7,-242.87 1251,-263"/>
<text text-anchor="middle" x="1174.29" y="-254.33" font-family="Times,serif" font-size="12.00">variant_usage</text>
</g>
<!-- node316&#45;&gt;node318 -->
<g id="edge27" class="edge">
<title>node316&#45;&gt;node318</title>
<path fill="none" stroke="black" stroke-dasharray="5,2" d="M1178.85,-386.87C1193.4,-377.85 1210.1,-364.53 1218.29,-347.43 1225.21,-333.01 1223.72,-326.48 1218.29,-311.43 1214.08,-299.78 1206.07,-288.87 1198.02,-280.02"/>
<polygon fill="black" stroke="black" points="1200.51,-277.55 1191.04,-272.8 1195.48,-282.42 1200.51,-277.55"/>
</g>
<!-- node317&#45;&gt;node318 -->
<g id="edge25" class="edge">
<title>node317&#45;&gt;node318</title>
<path fill="none" stroke="black" d="M1157.73,-311.13C1160.22,-303.22 1163.22,-293.66 1165.98,-284.88"/>
<polygon fill="black" stroke="black" points="1169.41,-285.65 1169.07,-275.06 1162.73,-283.55 1169.41,-285.65"/>
</g>
<!-- node318&#45;&gt;node303 -->
<g id="edge26" class="edge">
<title>node318&#45;&gt;node303</title>
<path fill="none" stroke="black" stroke-dasharray="5,2" d="M1133.89,-242.77C1098.08,-230.66 1045.96,-213.04 1009.59,-200.74"/>
<polygon fill="black" stroke="black" points="1010.37,-197.31 999.77,-197.42 1008.13,-203.94 1010.37,-197.31"/>
</g>
</g>
</svg>
